<?xml version="1.0" encoding="UTF-8" standalone="no"?>
<svg
   xmlns:dc="http://purl.org/dc/elements/1.1/"
   xmlns:cc="http://creativecommons.org/ns#"
   xmlns:rdf="http://www.w3.org/1999/02/22-rdf-syntax-ns#"
   xmlns:svg="http://www.w3.org/2000/svg"
   xmlns="http://www.w3.org/2000/svg"
   xmlns:sodipodi="http://sodipodi.sourceforge.net/DTD/sodipodi-0.dtd"
   xmlns:inkscape="http://www.inkscape.org/namespaces/inkscape"
   inkscape:version="1.0 (4035a4fb49, 2020-05-01)"
   sodipodi:docname="github.svg"
   id="svg26"
   viewBox="0 0 56 56"
   height="56"
   width="56"
   version="1.1">
  <metadata
     id="metadata32">
    <rdf:RDF>
      <cc:Work
         rdf:about="">
        <dc:format>image/svg+xml</dc:format>
        <dc:type
           rdf:resource="http://purl.org/dc/dcmitype/StillImage" />
        <dc:title>github-circle</dc:title>
      </cc:Work>
    </rdf:RDF>
  </metadata>
  <defs
     id="defs30" />
  <sodipodi:namedview
     inkscape:current-layer="svg26"
     inkscape:window-maximized="1"
     inkscape:window-y="-8"
     inkscape:window-x="-8"
     inkscape:cy="14.364454"
     inkscape:cx="-49.396984"
     inkscape:zoom="2.8020833"
     showgrid="false"
     id="namedview28"
     inkscape:window-height="705"
     inkscape:window-width="1366"
     inkscape:pageshadow="2"
     inkscape:pageopacity="0"
     guidetolerance="10"
     gridtolerance="10"
     objecttolerance="10"
     borderopacity="1"
     bordercolor="#666666"
     pagecolor="#ffffff" />
  <title
     id="title22">github-circle</title>
  <path
     style="stroke-width:1"
     id="path24"
     d="M 28.75,0.74999998 C 13.286533,0.74999998 0.74999998,13.286533 0.74999998,28.75 c 0,15.463467 12.53653302,28 28.00000002,28 15.463467,0 28,-12.536533 28,-28 0,-15.463467 -12.536533,-28.00000002 -28,-28.00000002 z M 53.016667,28.75 c 0,0.0025 0,0.005 0,0.01 0,11.085511 -7.431822,20.433778 -17.586489,23.333333 l -0.171733,0.04231 v -9.079467 q 0,-3.230577 -1.732267,-4.728888 c 1.284267,-0.129423 2.446578,-0.340978 3.571555,-0.634667 l -0.159288,0.03484 c 1.192177,-0.333511 2.232533,-0.776533 3.195733,-1.334044 l -0.06471,0.03484 c 1.057778,-0.5824 1.951289,-1.3216 2.688,-2.200177 l 0.01244,-0.01493 q 1.082667,-1.316622 1.764623,-3.496889 0.681955,-2.180266 0.681955,-5.012622 0,-4.029511 -2.630756,-6.861867 1.232001,-3.031466 -0.266311,-6.794666 -0.933333,-0.301156 -2.697955,0.365866 c -1.182219,0.438045 -2.190219,0.930845 -3.143464,1.510756 l 0.07964,-0.0448 -1.266845,0.798933 c -1.916444,-0.550044 -4.119111,-0.866133 -6.396444,-0.866133 -2.277334,0 -4.477511,0.316089 -6.565689,0.905955 l 0.169244,-0.03982 c -1.468444,-2.804978 -5.191822,-2.984178 -7.060978,-2.630755 -1.244444,1.983644 -1.095111,5.112177 -0.233955,6.794666 q -2.630756,2.832356 -2.630756,6.861867 0,2.832356 0.681956,4.9952 0.681955,2.162845 1.749689,3.496889 c 0.736711,0.903467 1.625244,1.650133 2.635733,2.207644 l 0.04729,0.0224 c 0.898489,0.522667 1.938844,0.968178 3.033956,1.2768 l 0.09458,0.0224 c 0.968178,0.261334 2.130489,0.4704 3.317689,0.592356 l 0.09707,0.0075 q -1.331556,1.199644 -1.632711,3.432177 c -0.430578,0.209067 -0.930845,0.3808 -1.456,0.4928 l -0.04231,0.0075 c -0.532623,0.107022 -1.144889,0.166756 -1.7696,0.166756 -0.0448,0 -0.0896,0 -0.1344,0 h 0.0075 q -1.100089,0 -2.182755,-0.7168 -1.082667,-0.7168 -1.849245,-2.0832 c -0.413155,-0.699378 -0.953244,-1.2768 -1.597866,-1.719823 l -0.01742,-0.01244 q -0.983111,-0.667022 -1.647644,-0.798933 l -0.301156,-0.0672 c -0.04978,-0.01244 -0.109511,-0.01991 -0.169244,-0.01991 -0.298667,0 -0.557511,0.169244 -0.684445,0.415644 l -0.0025,0.005 -0.03982,0.07715 c -0.05476,0.102045 -0.08462,0.224 -0.08462,0.353423 0,0.311111 0.181689,0.577422 0.445511,0.699377 l 0.005,0.0025 q 0.731733,0.333511 1.448533,1.266845 c 0.395734,0.4928 0.746667,1.050311 1.027911,1.647644 l 0.0224,0.04978 0.333512,0.766578 c 0.281244,0.836266 0.791466,1.535644 1.456,2.040889 l 0.01,0.0075 c 0.622222,0.487823 1.376356,0.838756 2.200178,0.993067 l 0.03236,0.005 c 0.686934,0.1344 1.485867,0.219022 2.302223,0.233955 h 0.01244 c 0.09209,0.0025 0.2016,0.005 0.311111,0.005 0.542578,0 1.0752,-0.0448 1.592889,-0.129422 l -0.05724,0.0075 0.766578,-0.131912 q 0,1.264356 0.01742,2.964267 c 0.0075,0.686933 0.01244,2.556089 0.01493,3.937422 C 12.081911,49.382889 4.4932889,39.952489 4.4932889,28.75 c 0,-9.9904 6.0330671,-18.572089 14.6570671,-22.2979556 l 0.1568,-0.059733 C 22.0972,5.1802225 25.3452,4.475867 28.759956,4.475867 c 13.397689,0 24.2592,10.861511 24.2592,24.2592 0,0.0075 0,0.01493 0,0.0224 v 0 z" />
</svg>
