<?xml version="1.0" encoding="UTF-8" standalone="no"?>
<svg
   xmlns:dc="http://purl.org/dc/elements/1.1/"
   xmlns:cc="http://creativecommons.org/ns#"
   xmlns:rdf="http://www.w3.org/1999/02/22-rdf-syntax-ns#"
   xmlns:svg="http://www.w3.org/2000/svg"
   xmlns="http://www.w3.org/2000/svg"
   xmlns:sodipodi="http://sodipodi.sourceforge.net/DTD/sodipodi-0.dtd"
   xmlns:inkscape="http://www.inkscape.org/namespaces/inkscape"
   xml:space="preserve"
   enable-background="new 0 0 256 256"
   viewBox="0 0 56 56"
   height="56"
   width="56"
   y="0px"
   x="0px"
   inkscape:output_extension="org.inkscape.output.svg.inkscape"
   sodipodi:docname="linkedin.svg"
   inkscape:version="1.0 (4035a4fb49, 2020-05-01)"
   sodipodi:version="0.32"
   id="svg2"
   version="1.1"><metadata
   id="metadata44"><rdf:RDF><cc:Work
       rdf:about=""><dc:format>image/svg+xml</dc:format><dc:type
         rdf:resource="http://purl.org/dc/dcmitype/StillImage" /><dc:title></dc:title></cc:Work></rdf:RDF></metadata><defs
   id="defs42" />
<sodipodi:namedview
   inkscape:document-rotation="0"
   inkscape:window-y="-8"
   inkscape:window-x="-8"
   inkscape:window-height="705"
   inkscape:window-width="1366"
   inkscape:current-layer="layer1_1_"
   inkscape:document-units="px"
   inkscape:cy="56.426659"
   inkscape:zoom="15.839192"
   inkscape:pageshadow="2"
   inkscape:pageopacity="0.0"
   inkscape:cx="39.444283"
   borderopacity="1.0"
   id="base"
   bordercolor="#666666"
   pagecolor="#ffffff"
   inkscape:window-maximized="1"
   showgrid="false">
	</sodipodi:namedview>
<g
   inkscape:groupmode="layer"
   inkscape:label="Layer 1"
   transform="translate(-373.642,-318.344)"
   id="layer1">
	
		<path
   style="stroke-width:0.999904"
   d="m 421.18605,318.344 h -39.08776 c -4.67025,0 -8.45629,3.78631 -8.45629,8.45699 v 39.0863 c 0,4.67061 3.78604,8.45671 8.45629,8.45671 h 39.0874 c 4.67023,0 8.45631,-3.78631 8.45631,-8.45671 v -39.0861 c 3e-4,-4.6706 -3.78608,-8.45719 -8.45595,-8.45719 z"
   fill="#1d8cb5"
   inkscape:export-ydpi="7.7063322"
   inkscape:export-xdpi="7.7063322"
   inkscape:export-filename="C:\Documents and Settings\Molumen\Desktop\path3511111.png"
   id="rect1942" />
	
		<linearGradient
   gradientTransform="matrix(-0.14094907,0,0,-0.14096042,273.87449,338.28963)"
   y2="49.2029"
   x2="-860.56921"
   y1="199.8918"
   x1="-808.87268"
   gradientUnits="userSpaceOnUse"
   id="path1950_1_">
		<stop
   id="stop30"
   style="stop-color:#FFFFFF"
   offset="0" />
		<stop
   id="stop32"
   style="stop-color:#FFFFFF;stop-opacity:0"
   offset="1" />
	</linearGradient>
	
		<path
   style="fill:url(#path1950_1_);stroke-width:0.999904"
   d="m 414.84665,320.73806 h -26.4093 c -6.99091,0 -12.61884,5.67412 -12.61884,12.72222 v 25.76764 c 0.22642,5.50199 1.09687,2.02365 2.75344,-4.06905 1.92569,-7.08096 8.19619,-13.2696 15.83324,-17.9078 5.82883,-3.54012 12.35297,-5.80073 24.22914,-6.01604 6.73534,-0.12168 6.14077,-8.74191 -3.78768,-10.49697 z"
   enable-background="new    "
   fill="url(#path1950_1_)"
   opacity="0.7811"
   inkscape:export-ydpi="7.7063322"
   sodipodi:nodetypes="ccccsssc"
   inkscape:export-xdpi="7.7063322"
   inkscape:export-filename="C:\Documents and Settings\Molumen\Desktop\path3511111.png"
   id="path1950" />
</g>
<g
   inkscape:groupmode="layer"
   inkscape:label="Layer 1"
   transform="translate(-200.55198,-393.96227)"
   id="layer1_1_">
	<g
   style="stroke-width:4.19625"
   transform="matrix(0.24277715,0,0,-0.24279657,190.91345,416.2599)"
   id="g3019">
		<path
   style="stroke-width:4.19726"
   d="M 109.495,-101.774 V 2.533 H 74.828 V -101.774 Z M 92.168,16.775 c 12.081,0 19.612,8.01 19.612,18.021 -0.224,10.233 -7.531,18.021 -19.385,18.021 -11.864,0 -19.615,-7.788 -19.615,-18.021 0,-10.011 7.521,-18.021 19.159,-18.021 z"
   fill="#ffffff"
   inkscape:connector-curvature="0"
   id="path28_1_" />
		<path
   style="stroke-width:4.19726"
   d="m 128.681,-101.774 h 34.673 v 58.249 c 0,3.119 0.226,6.235 1.143,8.462 2.5,6.232 8.209,12.681 17.784,12.681 12.547,0 17.562,-9.568 17.562,-23.588 v -55.804 h 34.666 v 59.81 c 0,32.039 -17.1,46.946 -39.913,46.946 -18.701,0 -26.915,-10.45 -31.476,-17.571 h 0.234 V 2.533 h -34.673 c 0.46,-9.786 0,-104.307 0,-104.307 z"
   fill="#ffffff"
   inkscape:connector-curvature="0"
   id="path30_1_" />
	</g>
</g>
</svg>
