<?xml version="1.0" encoding="UTF-8" standalone="no"?>
<svg
   xmlns:dc="http://purl.org/dc/elements/1.1/"
   xmlns:cc="http://creativecommons.org/ns#"
   xmlns:rdf="http://www.w3.org/1999/02/22-rdf-syntax-ns#"
   xmlns:svg="http://www.w3.org/2000/svg"
   xmlns="http://www.w3.org/2000/svg"
   xmlns:xlink="http://www.w3.org/1999/xlink"
   xmlns:sodipodi="http://sodipodi.sourceforge.net/DTD/sodipodi-0.dtd"
   xmlns:inkscape="http://www.inkscape.org/namespaces/inkscape"
   inkscape:version="1.0 (4035a4fb49, 2020-05-01)"
   height="56"
   width="156"
   sodipodi:docname="rs_school_js.svg"
   version="1.1"
   viewBox="0 0 156 55.999999"
   id="Layer_1">
  <metadata
     id="metadata174">
    <rdf:RDF>
      <cc:Work
         rdf:about="">
        <dc:format>image/svg+xml</dc:format>
        <dc:type
           rdf:resource="http://purl.org/dc/dcmitype/StillImage" />
        <dc:title>rs_school_js</dc:title>
      </cc:Work>
    </rdf:RDF>
  </metadata>
  <sodipodi:namedview
     inkscape:current-layer="Layer_1"
     inkscape:window-maximized="1"
     inkscape:window-y="-8"
     inkscape:window-x="-8"
     inkscape:cy="64.263299"
     inkscape:cx="121.92445"
     inkscape:zoom="6.8928571"
     showguides="false"
     showgrid="false"
     id="namedview172"
     inkscape:window-height="705"
     inkscape:window-width="1366"
     inkscape:pageshadow="2"
     inkscape:pageopacity="0"
     guidetolerance="10"
     gridtolerance="10"
     objecttolerance="10"
     borderopacity="1"
     bordercolor="#666666"
     pagecolor="#ffffff" />
  <style
     id="style93">.st0{fill:#fff}.st1{clip-path:url(#SVGID_2_)}.st2{clip-path:url(#SVGID_4_)}.st3{clip-path:url(#SVGID_6_)}.st4{clip-path:url(#SVGID_8_)}.st5{fill:#fff;stroke:#000;stroke-width:4;stroke-miterlimit:10}.st6{clip-path:url(#SVGID_8_)}.st6,.st7{fill:none;stroke:#000;stroke-width:4;stroke-miterlimit:10}.st8,.st9{clip-path:url(#SVGID_10_)}.st9{fill:none;stroke:#000;stroke-width:4;stroke-miterlimit:10}</style>
  <title
     id="title95">rs_school_js</title>
  <path
     style="stroke-width:1"
     id="path97"
     d="m 80.394366,17.295775 7.408451,-0.478874 c 0.169014,1.211268 0.478873,2.112676 0.985915,2.760564 0.816902,1.014084 1.943662,1.521126 3.43662,1.521126 1.098591,0 1.971831,-0.253521 2.56338,-0.788732 0.56338,-0.422535 0.901409,-1.098591 0.901409,-1.802817 0,-0.676056 -0.30986,-1.323943 -0.845071,-1.746479 -0.56338,-0.507042 -1.887324,-1.014084 -3.971831,-1.464788 -3.408451,-0.760564 -5.859155,-1.774648 -7.295774,-3.070423 -1.43662,-1.211268 -2.253522,-2.9859154 -2.197184,-4.8732393 0,-1.2957747 0.394367,-2.5915493 1.126761,-3.6619719 0.84507,-1.2112676 2,-2.169014 3.380282,-2.70422531 C 87.380281,0.33802817 89.464788,0 92.084507,0 c 3.211267,0 5.661972,0.59154929 7.352112,1.8028169 1.690141,1.1830986 2.704221,3.0985915 3.014081,5.7183098 L 95.12676,7.9436619 C 94.929577,6.8169014 94.535211,6 93.887324,5.4647887 93.239436,4.9295774 92.394366,4.6760563 91.295774,4.6760563 c -0.901408,0 -1.577464,0.1971831 -2.028169,0.5633803 -0.422535,0.3380282 -0.704225,0.8450704 -0.676056,1.4084507 0,0.4225352 0.225352,0.8169014 0.56338,1.0704225 0.366197,0.3380282 1.239437,0.6478874 2.619719,0.9295775 3.40845,0.7323944 5.830986,1.4647887 7.323943,2.2253517 1.492959,0.760564 2.563379,1.690141 3.211269,2.788733 0.67606,1.12676 1.01408,2.422535 0.98591,3.746479 0,1.577464 -0.4507,3.154929 -1.35211,4.478873 -0.92958,1.380282 -2.22535,2.450704 -3.746477,3.098591 -1.605634,0.704226 -3.633803,1.070423 -6.056338,1.070423 -4.28169,0 -7.239437,-0.816901 -8.901409,-2.478873 -1.661971,-1.661972 -2.647887,-3.746479 -2.84507,-6.28169 z M 1.7746479,25.633803 V 0.45070422 H 14.760563 c 2.394367,0 4.253521,0.1971831 5.521127,0.61971828 1.239437,0.3943662 2.338028,1.2112676 3.070423,2.3098592 C 24.169014,4.5915493 24.56338,6 24.535211,7.4647887 c 0.08451,2.4788732 -1.183098,4.8450703 -3.352112,6.0845073 -0.845071,0.478873 -1.774648,0.816901 -2.732395,0.985915 0.704226,0.197183 1.408451,0.535211 2.028169,0.929578 0.478873,0.394366 0.87324,0.84507 1.239437,1.323943 0.422535,0.478874 0.788732,1.014085 1.098591,1.577465 l 3.774648,7.295775 h -8.84507 L 13.577465,17.915493 C 13.042253,16.929577 12.591549,16.28169 12.169014,15.971831 11.605634,15.577465 10.929577,15.380282 10.253521,15.380282 H 9.5774648 V 25.605634 H 1.7746479 Z M 9.5774648,10.647887 h 3.2957742 c 0.704226,-0.05634 1.380282,-0.169014 2.056338,-0.338028 0.507043,-0.08451 0.957747,-0.3661971 1.267606,-0.7887323 C 16.957746,8.5070422 16.84507,7.0704225 15.915493,6.1971831 15.408451,5.7746479 14.422535,5.5492958 13.014084,5.5492958 H 9.5774648 Z M 0,47.211267 7.4084507,46.732394 c 0.1690141,1.211268 0.4788732,2.112676 0.9859155,2.760564 0.7887324,1.014084 1.9436618,1.549295 3.4366198,1.549295 1.098591,0 1.971831,-0.253521 2.56338,-0.788732 0.56338,-0.450704 0.901409,-1.098592 0.901409,-1.802817 0,-0.676056 -0.30986,-1.323944 -0.845071,-1.746479 -0.56338,-0.507042 -1.887324,-1.014084 -4,-1.464789 C 7.0422535,44.478873 4.5915493,43.464789 3.1549296,42.169014 1.7183099,40.957746 0.90140845,39.183098 0.95774648,37.295775 c 0,-1.295775 0.39436622,-2.59155 1.12676052,-3.661972 0.8450705,-1.211268 2,-2.169014 3.3802817,-2.704226 1.4929578,-0.647887 3.5774648,-0.985915 6.1971833,-0.985915 3.211267,0 5.661972,0.591549 7.352112,1.802817 1.690141,1.211267 2.676057,3.098591 2.985916,5.71831 l -7.323944,0.422535 c -0.197183,-1.126761 -0.591549,-1.943662 -1.239436,-2.478873 -0.619719,-0.535212 -1.492958,-0.788733 -2.59155,-0.760564 -0.9014081,0 -1.5774644,0.197183 -2.0281686,0.59155 -0.4507042,0.338028 -0.7042254,0.84507 -0.6760564,1.40845 0,0.422535 0.2253522,0.816902 0.5633803,1.070423 0.3661972,0.338028 1.2394366,0.647887 2.6197187,0.929577 3.40845,0.732395 5.830986,1.464789 7.323943,2.225352 1.492958,0.760564 2.563381,1.690141 3.211268,2.788733 0.676056,1.12676 1.014084,2.422535 1.014084,3.71831 0,1.577464 -0.478873,3.12676 -1.352112,4.450704 -0.929578,1.380281 -2.225352,2.450704 -3.746479,3.098591 C 16.169014,55.633803 14.140845,56 11.71831,56 7.4366197,56 4.4788732,55.183098 2.8169014,53.521127 1.1549296,51.830986 0.22535211,49.746479 0,47.211267 Z" />
  <path
     style="stroke-width:1"
     id="path99"
     d="m 37.464789,45.239436 6.816901,2.056339 c -0.366197,1.718309 -1.126761,3.352112 -2.169014,4.788732 -0.957747,1.267606 -2.225352,2.253521 -3.661972,2.901408 -1.464789,0.647888 -3.323944,0.985916 -5.577465,0.985916 -2.732394,0 -4.985915,-0.394366 -6.704225,-1.183099 C 24.422535,54 22.929577,52.591549 21.661972,50.591549 c -1.267606,-2 -1.887324,-4.56338 -1.887324,-7.690141 0,-4.169014 1.098591,-7.380281 3.323943,-9.605633 2.225353,-2.225353 5.352113,-3.352113 9.408451,-3.352113 3.183099,0 5.661972,0.647887 7.492958,1.915493 1.802817,1.295774 3.154929,3.267605 4.056338,5.915493 l -6.87324,1.521127 C 37.014084,38.704225 36.760563,38.112676 36.422535,37.605634 36,37.014084 35.464789,36.56338 34.816901,36.225352 34.169014,35.887324 33.43662,35.746479 32.704225,35.746479 c -1.774648,0 -3.12676,0.704225 -4.056338,2.140845 -0.704225,1.042253 -1.070422,2.704225 -1.070422,4.957746 0,2.788733 0.422535,4.704226 1.267605,5.746479 0.845071,1.042254 2.028169,1.549296 3.577465,1.549296 1.492958,0 2.619718,-0.422535 3.380282,-1.239437 0.760563,-0.873239 1.323943,-2.084507 1.661972,-3.661972 z M 53.380282,30.366197 h 7.774647 v 8.816901 h 8.507043 v -8.816901 h 7.830986 V 55.549296 H 69.661972 V 45.352113 h -8.507043 v 10.197183 h -7.774647 z" />
  <path
     style="stroke-width:1"
     id="path101"
     d="m 76.422535,42.957746 c 0,-4.112676 1.15493,-7.323943 3.43662,-9.605633 2.28169,-2.281691 5.492957,-3.43662 9.577464,-3.43662 4.197184,0 7.408451,1.12676 9.690141,3.380282 2.28169,2.253521 3.40845,5.40845 3.40845,9.464788 0,2.957747 -0.50704,5.352113 -1.49296,7.239437 -0.95774,1.859155 -2.450701,3.380282 -4.281687,4.394366 -1.887324,1.042254 -4.225352,1.577465 -7.014084,1.577465 -2.845071,0 -5.183099,-0.450704 -7.042254,-1.352113 -1.915493,-0.957746 -3.492958,-2.450704 -4.535211,-4.28169 -1.15493,-1.971831 -1.746479,-4.422535 -1.746479,-7.380282 z m 7.774648,0.02817 c 0,2.535212 0.478873,4.366198 1.408451,5.492958 0.929577,1.098592 2.225352,1.661972 3.859154,1.661972 1.661972,0 2.957747,-0.535211 3.887324,-1.633803 0.929578,-1.098591 1.380282,-3.042253 1.380282,-5.859155 0,-2.366197 -0.478873,-4.112676 -1.43662,-5.183098 -0.957746,-1.098592 -2.253521,-1.633803 -3.887324,-1.633803 -1.436619,-0.05634 -2.816901,0.56338 -3.774647,1.661972 -0.957747,1.098591 -1.43662,2.929577 -1.43662,5.492957 z m 26.309857,-0.02817 c 0,-4.112676 1.15493,-7.323943 3.43662,-9.605633 2.28169,-2.281691 5.49296,-3.43662 9.57747,-3.43662 4.19718,0 7.43662,1.12676 9.69014,3.380282 2.25352,2.253521 3.40845,5.40845 3.40845,9.464788 0,2.957747 -0.50704,5.352113 -1.49296,7.239437 -0.95775,1.859155 -2.4507,3.380282 -4.28169,4.394366 -1.88732,1.042254 -4.22535,1.577465 -7.01408,1.577465 -2.84507,0 -5.1831,-0.450704 -7.04226,-1.352113 -1.91549,-0.957746 -3.49296,-2.450704 -4.53521,-4.28169 -1.15493,-1.971831 -1.74648,-4.422535 -1.74648,-7.380282 z m 7.77465,0.02817 c 0,2.535212 0.47887,4.366198 1.40845,5.492958 0.92958,1.098592 2.22535,1.661972 3.85916,1.661972 1.66197,0 2.95774,-0.535211 3.88732,-1.633803 0.92958,-1.098591 1.38028,-3.042253 1.38028,-5.859155 0,-2.366197 -0.47887,-4.112676 -1.43662,-5.183098 -0.95775,-1.098592 -2.25352,-1.633803 -3.88732,-1.633803 -1.43662,-0.05634 -2.84507,0.56338 -3.77465,1.661972 -0.95775,1.098591 -1.43662,2.929577 -1.43662,5.492957 z" />
  <path
     style="stroke-width:1"
     id="path103"
     d="m 135.80282,30.366197 h 7.77464 v 18.985916 h 12.14085 v 6.197183 H 135.77465 V 30.366197 Z" />
  <ellipse
     style="stroke-width:1"
     id="ellipse105"
     ry="14.591549"
     rx="17.746479"
     cy="85.071762"
     cx="84.211212"
     class="st0"
     transform="rotate(-37.001001)" />
  <defs
     id="defs108">
    <ellipse
       ry="51.799999"
       rx="63"
       cy="67.900002"
       cx="420.5"
       transform="rotate(-37.001,420.46,67.88)"
       id="SVGID_1_" />
  </defs>
  <clipPath
     id="SVGID_2_">
    <use
       height="100%"
       width="100%"
       y="0"
       x="0"
       id="use110"
       overflow="visible"
       xlink:href="#SVGID_1_" />
  </clipPath>
  <g
     style="stroke-width:3.55"
     transform="matrix(0.28169014,0,0,0.28169014,0,-1.8591549)"
     id="g169"
     clip-path="url(#SVGID_2_)"
     class="st1">
    <path
       style="stroke-width:3.55"
       id="path113"
       d="M 330.9,-14.2 H 510.7 V 150.9 H 330.9 Z"
       class="st0"
       transform="rotate(-37.001,420.82,68.353)" />
    <g
       style="stroke-width:3.55"
       id="Layer_2_1_">
      <defs
         id="defs116">
        <path
           d="M 330.9,-14.2 H 510.7 V 150.9 H 330.9 Z"
           transform="rotate(-37.001,420.82,68.353)"
           id="SVGID_3_" />
      </defs>
      <clipPath
         id="SVGID_4_">
        <use
           height="100%"
           width="100%"
           y="0"
           x="0"
           id="use118"
           overflow="visible"
           xlink:href="#SVGID_3_" />
      </clipPath>
      <g
         style="stroke-width:3.55"
         clip-path="url(#SVGID_4_)"
         class="st2"
         id="Layer_1-2">
        <ellipse
           style="stroke-width:3.55"
           id="ellipse121"
           ry="51.799999"
           rx="63"
           cy="67.900002"
           cx="420.5"
           class="st0"
           transform="rotate(-37.001,420.46,67.88)" />
        <defs
           id="defs124">
          <ellipse
             ry="51.799999"
             rx="63"
             cy="67.900002"
             cx="420.5"
             transform="rotate(-37.001,420.46,67.88)"
             id="SVGID_5_" />
        </defs>
        <clipPath
           id="SVGID_6_">
          <use
             height="100%"
             width="100%"
             y="0"
             x="0"
             id="use126"
             overflow="visible"
             xlink:href="#SVGID_5_" />
        </clipPath>
        <g
           style="stroke-width:3.55"
           id="g161"
           clip-path="url(#SVGID_6_)"
           class="st3">
          <path
             style="stroke-width:3.55"
             id="path129"
             d="M 357.8,17 H 483.7 V 120.7 H 357.8 Z"
             class="st0"
             transform="rotate(-37,420.799,68.802)" />
          <defs
             id="defs132">
            <path
               d="M 357.8,17 H 483.7 V 120.7 H 357.8 Z"
               transform="rotate(-37,420.799,68.802)"
               id="SVGID_7_" />
          </defs>
          <clipPath
             id="SVGID_8_">
            <use
               height="100%"
               width="100%"
               y="0"
               x="0"
               id="use134"
               overflow="visible"
               xlink:href="#SVGID_7_" />
          </clipPath>
          <g
             style="stroke-width:3.55"
             id="g139"
             clip-path="url(#SVGID_8_)"
             class="st4">
            <ellipse
               id="ellipse137"
               ry="51.799999"
               rx="63"
               cy="67.900002"
               cx="420.5"
               class="st5"
               transform="rotate(-37.001,420.46,67.88)" />
          </g>
          <path
             id="path141"
             clip-path="url(#SVGID_8_)"
             d="M 357.8,17 H 483.7 V 120.7 H 357.8 Z"
             class="st6"
             transform="rotate(-37,420.799,68.802)" />
          <ellipse
             id="ellipse143"
             ry="51.799999"
             rx="63"
             cy="67.900002"
             cx="420.5"
             class="st7"
             transform="rotate(-37.001,420.46,67.88)" />
          <path
             style="stroke-width:3.55"
             id="path145"
             d="M 357.8,17 H 483.7 V 120.7 H 357.8 Z"
             class="st0"
             transform="rotate(-37,420.799,68.802)" />
          <defs
             id="defs148">
            <path
               d="M 357.8,17 H 483.7 V 120.7 H 357.8 Z"
               transform="rotate(-37,420.799,68.802)"
               id="SVGID_9_" />
          </defs>
          <clipPath
             id="SVGID_10_">
            <use
               height="100%"
               width="100%"
               y="0"
               x="0"
               id="use150"
               overflow="visible"
               xlink:href="#SVGID_9_" />
          </clipPath>
          <g
             style="stroke-width:3.55"
             id="g155"
             clip-path="url(#SVGID_10_)"
             class="st8">
            <ellipse
               id="ellipse153"
               ry="51.799999"
               rx="63"
               cy="67.900002"
               cx="420.5"
               class="st5"
               transform="rotate(-37.001,420.46,67.88)" />
          </g>
          <path
             id="path157"
             clip-path="url(#SVGID_10_)"
             d="M 357.8,17 H 483.7 V 120.7 H 357.8 Z"
             class="st9"
             transform="rotate(-37,420.799,68.802)" />
          <path
             id="path159"
             d="M 330.9,-14.2 H 510.7 V 150.9 H 330.9 Z"
             class="st7"
             transform="rotate(-37.001,420.82,68.353)" />
        </g>
        <ellipse
           id="ellipse163"
           ry="51.799999"
           rx="63"
           cy="67.900002"
           cx="420.5"
           class="st7"
           transform="rotate(-37.001,420.46,67.88)" />
        <path
           style="stroke-width:3.55"
           id="path165"
           d="m 392.4,61.3 10,-7 12.3,17.5 c 2.1,2.8 3.7,5.8 4.9,9.1 0.7,2.5 0.5,5.2 -0.5,7.6 -1.3,3 -3.4,5.5 -6.2,7.3 -3.3,2.3 -6.1,3.6 -8.5,4 -2.3,0.4 -4.7,0 -6.9,-1 -2.4,-1.2 -4.5,-2.9 -6.1,-5.1 l 8.6,-8 c 0.7,1.1 1.6,2.1 2.6,2.9 0.7,0.5 1.5,0.8 2.4,0.8 0.7,0 1.4,-0.3 1.9,-0.7 1,-0.6 1.7,-1.8 1.6,-3 -0.3,-1.7 -1,-3.4 -2.1,-4.7 z m 30,11.1 9.1,-7.2 c 1,1.2 2.3,2.1 3.7,2.6 2,0.6 4.1,0.2 5.8,-1.1 1.2,-0.8 2.2,-1.9 2.6,-3.3 0.6,-1.8 -0.4,-3.8 -2.2,-4.4 -0.3,-0.1 -0.6,-0.2 -0.9,-0.2 -1.2,-0.1 -3.3,0.4 -6.4,1.7 -5.1,2.1 -9.1,2.9 -12.1,2.6 -2.9,-0.3 -5.6,-1.8 -7.2,-4.3 -1.2,-1.7 -1.8,-3.7 -1.9,-5.7 0,-2.3 0.6,-4.6 1.9,-6.5 1.9,-2.7 4.2,-5 7,-6.8 4.2,-2.9 7.9,-4.3 11.1,-4.3 3.2,0 6.2,1.5 9,4.6 l -9,7.1 c -1.8,-2.3 -5.2,-2.8 -7.5,-1 l -0.3,0.3 c -1,0.6 -1.7,1.5 -2.1,2.6 -0.3,0.8 -0.1,1.7 0.4,2.4 0.4,0.5 1,0.9 1.7,0.9 0.8,0.1 2.2,-0.3 4.2,-1.2 5,-2.1 8.8,-3.3 11.4,-3.7 2.2,-0.4 4.5,-0.2 6.6,0.7 1.9,0.8 3.5,2.2 4.6,3.9 1.4,2 2.2,4.4 2.3,6.9 0.1,2.6 -0.6,5.1 -2,7.3 -1.8,2.7 -4.1,5 -6.8,6.8 -5.5,3.8 -10,5.4 -13.6,4.8 -3.9,-0.6 -7.1,-2.6 -9.4,-5.5 z" />
      </g>
    </g>
  </g>
</svg>
