<?xml version="1.0" encoding="UTF-8" standalone="no"?>
<svg
   xmlns:dc="http://purl.org/dc/elements/1.1/"
   xmlns:cc="http://creativecommons.org/ns#"
   xmlns:rdf="http://www.w3.org/1999/02/22-rdf-syntax-ns#"
   xmlns:svg="http://www.w3.org/2000/svg"
   xmlns="http://www.w3.org/2000/svg"
   xmlns:xlink="http://www.w3.org/1999/xlink"
   xmlns:sodipodi="http://sodipodi.sourceforge.net/DTD/sodipodi-0.dtd"
   xmlns:inkscape="http://www.inkscape.org/namespaces/inkscape"
   inkscape:version="1.0 (4035a4fb49, 2020-05-01)"
   sodipodi:docname="telegram.svg"
   id="svg124"
   height="56"
   width="56"
   viewBox="0 0 55.999998 56"
   preserveAspectRatio="xMidYMid meet"
   version="1.1">
  <metadata
     id="metadata128">
    <rdf:RDF>
      <cc:Work
         rdf:about="">
        <dc:format>image/svg+xml</dc:format>
        <dc:type
           rdf:resource="http://purl.org/dc/dcmitype/StillImage" />
        <dc:title></dc:title>
      </cc:Work>
    </rdf:RDF>
  </metadata>
  <sodipodi:namedview
     width="56mm"
     units="px"
     inkscape:current-layer="svg124"
     inkscape:window-maximized="1"
     inkscape:window-y="-8"
     inkscape:window-x="-8"
     inkscape:cy="283.89275"
     inkscape:cx="342.46601"
     inkscape:zoom="0.59441164"
     inkscape:snap-global="true"
     showgrid="false"
     id="namedview126"
     inkscape:window-height="705"
     inkscape:window-width="1366"
     inkscape:pageshadow="2"
     inkscape:pageopacity="0"
     guidetolerance="10"
     gridtolerance="10"
     objecttolerance="10"
     borderopacity="1"
     bordercolor="#666666"
     pagecolor="#ffffff" />
  <defs
     id="defs102">
    <path
       id="a1viesnWNQ"
       d="M 28,0 C 12.54,0 0,12.54 0,28 0,43.46 12.54,56 28,56 43.46,56 56,43.46 56,28 56,12.54 43.46,0 28,0 Z" />
    <path
       id="bpwnimH5o"
       d="m 39.81,16.98 c 1.25,-0.45 2.35,0.31 1.94,2.2 0,0 0,0 0,0 -2.76,13 -4.29,20.21 -4.59,21.66 -0.34,1.53 -1.26,1.91 -2.53,1.18 -0.47,-0.34 -2.8,-2.06 -7,-5.16 -2.03,1.96 -3.15,3.04 -3.38,3.26 -0.37,0.37 -0.69,0.69 -1.41,0.69 0.03,-0.48 0.2,-2.85 0.5,-7.13 7.78,-7.03 12.1,-10.94 12.97,-11.72 0.56,-0.5 -0.13,-0.78 -0.87,-0.28 -1.07,0.67 -6.41,4.04 -16.03,10.09 -4.15,-1.29 -6.45,-2.01 -6.91,-2.15 -1.51,-0.48 -1.54,-1.5 0.31,-2.23 5.4,-2.08 24.3,-9.36 27,-10.41 z" />
  </defs>
  <g
     style="image-rendering:optimizeSpeed"
     transform="matrix(1.0001571,0,0,0.98237876,0.19560026,0.19562778)"
     id="g122">
    <g
       style="stroke-width:1.00909"
       transform="matrix(0.98198578,0,0,1.0000802,0.50439867,-0.00269124)"
       id="g120">
      <g
         style="stroke-width:1.00909"
         id="g110">
        <use
           style="stroke-width:1.01826"
           height="100%"
           width="100%"
           y="0"
           x="0"
           id="use104"
           fill-opacity="1"
           fill="#039be5"
           opacity="1"
           xlink:href="#a1viesnWNQ" />
        <g
           style="stroke-width:1.00909"
           id="g108">
          <use
             height="100%"
             width="100%"
             y="0"
             x="0"
             id="use106"
             stroke-opacity="0"
             stroke-width="1.00909"
             stroke="#000000"
             fill-opacity="0"
             opacity="1"
             xlink:href="#a1viesnWNQ" />
        </g>
      </g>
      <g
         style="stroke-width:1.00909"
         id="g118">
        <use
           style="stroke-width:1.01826"
           height="100%"
           width="100%"
           y="0"
           x="0"
           id="use112"
           fill-opacity="1"
           fill="#ffffff"
           opacity="1"
           xlink:href="#bpwnimH5o" />
        <g
           style="stroke-width:1.00909"
           id="g116">
          <use
             height="100%"
             width="100%"
             y="0"
             x="0"
             id="use114"
             stroke-opacity="0"
             stroke-width="1.00909"
             stroke="#000000"
             fill-opacity="0"
             opacity="1"
             xlink:href="#bpwnimH5o" />
        </g>
      </g>
    </g>
  </g>
</svg>
